<?xml version="1.0" encoding="utf-8"?>
<!-- Generator: Adobe Illustrator 21.1.0, SVG Export Plug-In . SVG Version: 6.00 Build 0)  -->
<svg version="1.1" id="Capa_1" xmlns="http://www.w3.org/2000/svg" xmlns:xlink="http://www.w3.org/1999/xlink" x="0px" y="0px"
	 viewBox="0 0 512 512" style="enable-background:new 0 0 512 512;" xml:space="preserve">
<style type="text/css">
	.st0{fill:#E85877;}
</style>
<g>
	<path class="st0" d="M416,230.1L294.8,487.9c-7,14.7-22.3,23.6-38.3,23.6c-16,0-31.3-9-38-23.6L97,230.1c-8.7-18.3-11-39.3-11-59.6
		C86,76.3,162.3,0,256.5,0C350.7,0,427,76.3,427,170.5C427,190.8,424.7,211.8,416,230.1z M256.5,85.3c-47,0-85.3,38.3-85.3,85.3
		s38.3,85.3,85.3,85.3c47,0,85.3-38.3,85.3-85.3S303.5,85.3,256.5,85.3z"/>
</g>
</svg>
